<svg xmlns="http://www.w3.org/2000/svg" viewBox="0 0 512 512">
  <defs>
    <linearGradient id="g" x1="0" y1="0" x2="1" y2="1">
      <stop offset="0" stop-color="#2563eb"/>
      <stop offset="1" stop-color="#22c55e"/>
    </linearGradient>
  </defs>
  <rect width="512" height="512" rx="120" fill="url(#g)"/>
  <g fill="#fff">
    <path d="M110 350V162h44l54 106 54-106h44v188h-42V236l-44 86h-24l-44-86v114z"/>
    <path d="M342 350V162h60c22 0 40 18 40 40v68c0 22-18 40-40 40h-18v40h-42zm42-82h14c7 0 12-5 12-12v-64c0-7-5-12-12-12h-14v88z"/>
  </g>
</svg>
